/* XPM */
static char * ladybug_xpm[] = {
"16 16 163 2",
"  	c None",
". 	c #282424",
"+ 	c #383535",
"@ 	c #262020",
"# 	c #3B3B3B",
"$ 	c #0D0606",
"% 	c #322C2C",
"& 	c #A3A3A3",
"* 	c #C0C0C0",
"= 	c #494949",
"- 	c #0E0909",
"; 	c #201212",
"> 	c #251C1C",
", 	c #646464",
"' 	c #9F9F9F",
") 	c #AFAFAF",
"! 	c #787878",
"~ 	c #2A2626",
"{ 	c #030202",
"] 	c #482B2B",
"^ 	c #161212",
"/ 	c #202125",
"( 	c #121416",
"_ 	c #141516",
": 	c #15181C",
"< 	c #121414",
"[ 	c #000000",
"} 	c #2F272F",
"| 	c #88663A",
"1 	c #DCAC55",
"2 	c #F7D07A",
"3 	c #DB894C",
"4 	c #EDBB5C",
"5 	c #B48244",
"6 	c #473831",
"7 	c #030101",
"8 	c #2C1A1A",
"9 	c #26272B",
"0 	c #C78B4C",
"a 	c #FCB85B",
"b 	c #FCDC82",
"c 	c #FAE8C4",
"d 	c #DE946E",
"e 	c #F9DB85",
"f 	c #FFC25E",
"g 	c #F3A151",
"h 	c #5A493E",
"i 	c #080404",
"j 	c #0B0606",
"k 	c #BB7545",
"l 	c #F5A250",
"m 	c #5E0B1B",
"n 	c #B48166",
"o 	c #FAF4E6",
"p 	c #DF987A",
"q 	c #ECCE90",
"r 	c #68181F",
"s 	c #E6964C",
"t 	c #EE8944",
"u 	c #4B4444",
"v 	c #211313",
"w 	c #050202",
"x 	c #160D0D",
"y 	c #322F2E",
"z 	c #EB8342",
"A 	c #F9A351",
"B 	c #955335",
"C 	c #E3B767",
"D 	c #F8DDA4",
"E 	c #DA8B5C",
"F 	c #EAC26C",
"G 	c #6A2D27",
"H 	c #E39049",
"I 	c #EE8541",
"J 	c #93563A",
"K 	c #1A1212",
"L 	c #694434",
"M 	c #EC7B3E",
"N 	c #DF8845",
"O 	c #EEA251",
"P 	c #FAB85B",
"Q 	c #F7C468",
"R 	c #D47D42",
"S 	c #FBBC5D",
"T 	c #F7A854",
"U 	c #F29449",
"V 	c #EA7C3E",
"W 	c #E16332",
"X 	c #020101",
"Y 	c #000202",
"Z 	c #90462E",
"` 	c #EE7138",
" .	c #664233",
"..	c #7A5137",
"+.	c #FAA652",
"@.	c #F5AE5C",
"#.	c #D4733D",
"$.	c #F6A551",
"%.	c #9F683E",
"&.	c #5B3E32",
"*.	c #E87138",
"=.	c #E95B2D",
"-.	c #141110",
";.	c #7A3826",
">.	c #E55F2F",
",.	c #C46335",
"'.	c #D6753E",
").	c #EE8C45",
"!.	c #F09651",
"~.	c #D46A38",
"{.	c #EF8D46",
"].	c #D4763E",
"^.	c #A15634",
"/.	c #E6602F",
"(.	c #E44C26",
"_.	c #3D2A2A",
":.	c #372420",
"<.	c #DF4C26",
"[.	c #E55E2E",
"}.	c #8C4C2E",
"|.	c #C86737",
"1.	c #EA8045",
"2.	c #CD5F32",
"3.	c #E8733A",
"4.	c #A75630",
"5.	c #E15D2E",
"6.	c #DF4D26",
"7.	c #AD351D",
"8.	c #C7371C",
"9.	c #DA4723",
"0.	c #121314",
"a.	c #6E331F",
"b.	c #E56B3B",
"c.	c #C7532B",
"d.	c #A64727",
"e.	c #061013",
"f.	c #98351D",
"g.	c #DA391D",
"h.	c #2F1C1A",
"i.	c #1A1313",
"j.	c #D83118",
"k.	c #DA3B1D",
"l.	c #DD4220",
"m.	c #DF542E",
"n.	c #C54B27",
"o.	c #DE4321",
"p.	c #CC371C",
"q.	c #DE3218",
"r.	c #821F12",
"s.	c #230F0C",
"t.	c #C21F0F",
"u.	c #DB2914",
"v.	c #D83920",
"w.	c #C64422",
"x.	c #D72914",
"y.	c #DF2412",
"z.	c #5B110B",
"A.	c #221718",
"B.	c #47120F",
"C.	c #5F140C",
"D.	c #631F10",
"E.	c #530F0B",
"F.	c #2E1413",
"        . +         @ #         ",
"          $ % & * = - ;         ",
"          > , ' ) ! ~           ",
"    { ]   ^ / ( _ : <     {     ",
"      [ } | 1 2 3 4 5 6 7 8     ",
"      9 0 a b c d e f g h       ",
"i j   k l m n o p q r s t u v w ",
"  x y z A B C D E F G H I J K   ",
"    L M N O P Q R S T U V W     ",
"X Y Z `  ...+.@.#.$.%.&.*.=.-.[ ",
"    ;.>.,.'.).!.~.{.].^./.(._.  ",
"    :.<.[.}.|.1.2.3.4.5.6.7.    ",
"      8.9.0.a.b.c.d.e.f.g.h.    ",
"      i.j.k.l.m.n.o.p.q.r.      ",
"        s.t.u.v.w.x.y.z.        ",
"          A.B.C.D.E.F.          "};
