/* XPM */
static char * greenbug_xpm[] = {
"16 16 62 1",
" 	c None",
".	c #037503",
"+	c #036E03",
"@	c #B3E6E6",
"#	c #399339",
"$	c #62B762",
"%	c #0D6E0D",
"&	c #3F943F",
"*	c #61B661",
"=	c #76CB76",
"-	c #036C03",
";	c #2F812F",
">	c #67B567",
",	c #71C171",
"'	c #025F02",
")	c #025202",
"!	c #3E873E",
"~	c #4C934C",
"{	c #3C813C",
"]	c #347834",
"^	c #3B803B",
"/	c #4A904A",
"(	c #3C853C",
"_	c #014301",
":	c #57A157",
"<	c #69B569",
"[	c #6EBD6E",
"}	c #357935",
"|	c #013901",
"1	c #478947",
"2	c #5A9D5A",
"3	c #65AE65",
"4	c #377B37",
"5	c #013701",
"6	c #003100",
"7	c #408340",
"8	c #549954",
"9	c #5FA95F",
"0	c #3A7E3A",
"a	c #002F00",
"b	c #002C00",
"c	c #367936",
"d	c #4E9B4E",
"e	c #59A959",
"f	c #3D843D",
"g	c #226122",
"h	c #489E48",
"i	c #54AC54",
"j	c #3F8D3F",
"k	c #094009",
"l	c #409B40",
"m	c #4EB24E",
"n	c #409940",
"o	c #003C00",
"p	c #1C6A1C",
"q	c #47AE47",
"r	c #41A741",
"s	c #004900",
"t	c #004700",
"u	c #196F19",
"v	c #40AA40",
"w	c #005000",
"                ",
"     .....      ",
"    +@#$#@+     ",
"    %&*=*&%     ",
" -  ;>,,,>;  -  ",
"  ')!~{]^/()'   ",
"   _:<[}[<:_    ",
"   |1234321|    ",
" 5567890987655  ",
"a  bcdefedcb  a ",
"    ghijihg     ",
"   6klmnmlk6    ",
"  o  pqrqp  o   ",
"  s  tuvut  s   ",
"       w        ",
"                "};
